<svg width="11" height="11" viewBox="0 0 11 11" fill="none" xmlns="http://www.w3.org/2000/svg">
<path d="M7.52644 5.72676C7.52262 5.07495 7.81794 4.5837 8.41432 4.22148C8.08077 3.74362 7.57614 3.48079 6.91095 3.43014C6.28113 3.38044 5.59205 3.79714 5.33973 3.79714C5.07309 3.79714 4.46333 3.44734 3.98356 3.44734C2.99342 3.46263 1.94116 4.23677 1.94116 5.81181C1.94116 6.27726 2.02622 6.75799 2.19634 7.25306C2.42381 7.90486 3.24382 9.50189 4.0992 9.47608C4.54648 9.46557 4.86283 9.15878 5.44487 9.15878C6.0097 9.15878 6.30215 9.47608 6.80105 9.47608C7.66407 9.46366 8.40571 8.0119 8.62171 7.35819C7.46432 6.81246 7.52644 5.76021 7.52644 5.72676V5.72676ZM6.52197 2.81178C7.00653 2.23643 6.96256 1.71269 6.94823 1.52441C6.52006 1.54926 6.02499 1.81591 5.74305 2.14373C5.43244 2.49543 5.2499 2.93029 5.28908 3.42058C5.75165 3.45594 6.17409 3.21797 6.52197 2.81178V2.81178Z" fill="#664DE5"/>
</svg>
