<svg width="16" height="16" viewBox="0 0 16 16" fill="none" xmlns="http://www.w3.org/2000/svg">
<path fill-rule="evenodd" clip-rule="evenodd" d="M4.75018 1.5H11.2502C13.0451 1.5 14.5002 2.95507 14.5002 4.75V11.25C14.5002 13.0449 13.0451 14.5 11.2502 14.5H4.75018C2.95526 14.5 1.50018 13.0449 1.50018 11.25V4.75C1.50018 2.95507 2.95526 1.5 4.75018 1.5ZM7.17587 6.32997C7.52126 6.15075 7.91437 6.08501 8.29928 6.14208C8.69191 6.20031 9.0554 6.38326 9.33607 6.66393C9.61673 6.94459 9.79969 7.30808 9.85791 7.70071C9.91499 8.08562 9.84924 8.47873 9.67002 8.82413C9.49081 9.16952 9.20724 9.44961 8.85966 9.62456C8.51208 9.7995 8.11819 9.8604 7.73401 9.79858C7.34983 9.73676 6.99492 9.55537 6.71977 9.28022C6.44462 9.00507 6.26324 8.65016 6.20142 8.26598C6.1396 7.8818 6.20049 7.48791 6.37544 7.14033C6.55038 6.79275 6.83047 6.50919 7.17587 6.32997ZM8.51931 4.65831C7.8223 4.55495 7.11045 4.67401 6.48501 4.99854C5.85957 5.32307 5.35238 5.83655 5.03558 6.46595C4.71879 7.09534 4.60852 7.80861 4.72047 8.50429C4.83241 9.19997 5.16087 9.84263 5.65911 10.3409C6.15736 10.8391 6.80003 11.1676 7.49571 11.2795C8.19139 11.3915 8.90465 11.2812 9.53405 10.9644C10.1634 10.6476 10.6769 10.1404 11.0015 9.51498C11.326 8.88954 11.445 8.17769 11.3417 7.48068C11.2363 6.76971 10.905 6.1115 10.3967 5.60327C9.8885 5.09503 9.23028 4.76374 8.51931 4.65831Z" fill="#8C8C8C"/>
</svg>
