<svg width="16" height="16" viewBox="0 0 16 16" fill="none" xmlns="http://www.w3.org/2000/svg">
<path d="M10.7997 5.60547C11.9136 5.60547 12.982 6.03799 13.7696 6.80787C14.5573 7.57776 14.9998 8.62195 14.9998 9.71073V14.5002H12.1997V9.71073C12.1997 9.3478 12.0522 8.99974 11.7897 8.74311C11.5271 8.48648 11.171 8.34231 10.7997 8.34231C10.4284 8.34231 10.0723 8.48648 9.80974 8.74311C9.54718 8.99974 9.39968 9.3478 9.39968 9.71073V14.5002H6.59961V9.71073C6.59961 8.62195 7.04212 7.57776 7.82979 6.80787C8.61746 6.03799 9.68578 5.60547 10.7997 5.60547Z" fill="#8C8C8C"/>
<path d="M3.80007 6.28906H1V14.4996H3.80007V6.28906Z" fill="#8C8C8C"/>
<path d="M2.40003 4.23684C3.17325 4.23684 3.80007 3.62418 3.80007 2.86842C3.80007 2.11266 3.17325 1.5 2.40003 1.5C1.62682 1.5 1 2.11266 1 2.86842C1 3.62418 1.62682 4.23684 2.40003 4.23684Z" fill="#8C8C8C"/>
</svg>
