<svg width="176" height="48" viewBox="0 0 176 48" fill="none" xmlns="http://www.w3.org/2000/svg">
<path d="M26.7166 47.997L25.8943 44.9623L25.8401 44.9738V47.9788H24.9668V43.3559C25.4058 43.3559 25.8514 43.3518 26.297 43.3626C26.3346 43.3626 26.3902 43.4539 26.4035 43.5115C26.6659 44.5677 26.9225 45.6246 27.2251 46.6886C27.4953 45.5809 27.7653 44.4719 28.0353 43.3619H29.3726V47.9842H28.5264V44.9014L28.4958 44.8912C28.4326 45.1115 28.367 45.329 28.3081 45.5502C28.0996 46.3223 27.8962 47.095 27.681 47.8654C27.6638 47.8991 27.6382 47.928 27.607 47.9492C27.5761 47.9714 27.5406 47.986 27.5031 47.9916C27.387 47.9984 27.2701 48 27.152 48C27.012 47.9993 26.8685 47.997 26.7166 47.997ZM37.8735 47.9862C37.6825 47.9835 37.4952 47.9341 37.3273 47.842C37.1593 47.7499 37.0159 47.6181 36.9093 47.4576C36.773 47.231 36.6888 46.9762 36.6632 46.7121C36.6362 45.6818 36.654 44.6505 36.6557 43.6192C36.6602 43.5989 36.6669 43.5793 36.6752 43.5603H37.5309V44.4445H39.3731V45.0654H37.5442C37.5442 45.6438 37.5063 46.1956 37.5581 46.7397C37.5914 47.0879 37.6993 47.2186 38.1612 47.191C38.2845 47.1732 38.397 47.1098 38.4768 47.013C38.5567 46.9162 38.5982 46.7927 38.5934 46.6667C38.6007 46.3407 38.5934 46.0145 38.5934 45.6643H39.3978C39.3217 46.2168 39.5036 46.767 39.2582 47.3081C39.1324 47.5235 38.952 47.7011 38.7357 47.8222C38.5193 47.9433 38.2748 48.0037 38.0277 47.997C37.9761 47.9974 37.9246 47.9937 37.8735 47.9862ZM34.5621 47.9505C34.3037 47.9065 34.0518 47.8303 33.8119 47.7236C33.6492 47.6283 33.5102 47.4964 33.4056 47.3383C33.3011 47.1801 33.2339 46.9997 33.2088 46.8111C33.0845 46.3327 33.1045 45.8277 33.2663 45.361C33.3437 45.1373 33.4742 44.9364 33.6466 44.7761C33.819 44.6158 34.0278 44.5011 34.2545 44.4421C34.51 44.3569 34.7821 44.3353 35.0476 44.3791C35.313 44.423 35.564 44.531 35.7795 44.694C36.0737 44.9442 36.2623 45.2987 36.3066 45.6852C36.3501 45.9145 36.3518 46.1516 36.3754 46.4091H34.0561C34.0397 46.5754 34.0727 46.7428 34.1513 46.8897C34.2298 47.0366 34.35 47.1564 34.4965 47.2334C34.648 47.2963 34.8158 47.3081 34.9745 47.267C35.1332 47.2248 35.2741 47.1315 35.3759 47.0011C35.4111 46.9536 35.4626 46.9214 35.5204 46.9111C35.7166 46.9004 35.9146 46.9054 36.1111 46.9061C36.1719 46.9061 36.2324 46.9128 36.2959 46.9152C36.2097 47.2263 36.0249 47.5001 35.7698 47.6943C35.5147 47.8885 35.2033 47.9922 34.8842 47.9896C34.7757 47.9889 34.6677 47.9758 34.5621 47.9505ZM34.7261 45.0737C34.5386 45.0871 34.3637 45.1749 34.2396 45.3178C34.1155 45.4607 34.052 45.6474 34.0629 45.8374H35.4597C35.4652 45.7403 35.4515 45.6431 35.4191 45.5516C35.3867 45.4601 35.3362 45.3761 35.271 45.3047C35.2058 45.2333 35.127 45.176 35.0394 45.1361C34.9518 45.0963 34.8575 45.0747 34.7614 45.0728C34.7481 45.0728 34.7367 45.0731 34.7261 45.0737ZM30.6882 47.8819C30.424 47.7869 30.1926 47.6161 30.0225 47.3905C29.8523 47.165 29.7503 46.8942 29.7292 46.6111C29.6691 46.2446 29.6844 45.8695 29.7737 45.5091C29.8306 45.2453 29.9605 45.0034 30.1485 44.8119C30.3364 44.6204 30.5745 44.4872 30.8346 44.428C31.0735 44.3527 31.3263 44.3329 31.5738 44.3698C31.8213 44.4068 32.0572 44.4996 32.2645 44.6414C32.4206 44.7587 32.5523 44.9063 32.6516 45.0755C32.7509 45.2446 32.816 45.4321 32.8432 45.627C32.8829 45.8854 32.9074 46.146 32.9169 46.4074H30.5992C30.5829 46.5721 30.6154 46.738 30.6924 46.884C30.7694 47.03 30.8872 47.1497 31.0314 47.2276C31.1857 47.2926 31.357 47.3036 31.5182 47.2589C31.6794 47.2142 31.8215 47.1164 31.9216 46.9808C31.9632 46.9377 32.019 46.9115 32.0784 46.9071C32.3301 46.8997 32.5807 46.9037 32.8351 46.9037C32.7695 47.1728 32.6269 47.4163 32.4252 47.6038C32.2236 47.7912 31.9718 47.9143 31.7014 47.9576C31.5885 47.9748 31.4743 47.9834 31.3601 47.9832C31.1323 47.9831 30.906 47.9492 30.6882 47.8819ZM30.9145 45.1987C30.8135 45.2668 30.7337 45.3629 30.6849 45.4755C30.636 45.5886 30.6204 45.7135 30.6398 45.8354H32.017C32.0194 45.6991 31.9852 45.5647 31.9186 45.4462C31.8521 45.3277 31.7553 45.2295 31.6384 45.1619C31.5311 45.1025 31.4112 45.0702 31.289 45.068C31.1533 45.0675 31.0214 45.114 30.9145 45.1987ZM40.1201 47.9818V43.3532H40.7595C41.2084 43.3532 41.6599 43.3707 42.1091 43.3499C42.3459 43.341 42.5814 43.3906 42.795 43.4945C43.0086 43.5983 43.1938 43.7533 43.335 43.946C43.4762 44.1387 43.5689 44.3632 43.6052 44.6003C43.6415 44.8373 43.6202 45.0799 43.5432 45.3068C43.4605 45.5886 43.2892 45.8352 43.0551 46.0091C42.8215 46.1834 42.5382 46.2758 42.2481 46.2724C41.8617 46.261 41.4749 46.27 41.0589 46.27V47.9818H40.1201ZM41.0605 44.161V45.5115C41.4556 45.5115 41.8337 45.5306 42.2088 45.5057C42.3622 45.4935 42.5053 45.4228 42.6092 45.3079C42.7131 45.1929 42.7699 45.0424 42.7683 44.8866C42.7834 44.8064 42.7826 44.7241 42.7657 44.6443C42.7488 44.5646 42.7164 44.489 42.6703 44.4222C42.6241 44.3554 42.5651 44.2985 42.4969 44.2551C42.4287 44.2117 42.3526 44.1825 42.2731 44.1693C42.1125 44.1569 41.9506 44.1525 41.7879 44.1525C41.5482 44.1518 41.3059 44.161 41.0605 44.161ZM47.143 47.9795V43.3158H48V47.9795H47.143ZM44.2394 47.8714C43.568 47.6479 43.6109 46.6906 43.9384 46.3091C44.251 45.9458 44.6903 45.9367 45.1023 45.8488C45.2686 45.8131 45.4378 45.7899 45.6011 45.7478C45.6747 45.7323 45.74 45.69 45.7849 45.6289C45.8293 45.5675 45.8502 45.492 45.844 45.4162C45.8492 45.3441 45.8271 45.2726 45.782 45.2165C45.7368 45.1598 45.6713 45.1235 45.5998 45.1155C45.0744 45.0007 44.8083 45.0441 44.6191 45.5411H43.8416C43.9048 44.773 44.2677 44.4151 45.0571 44.3626C45.4783 44.3148 45.9039 44.3959 46.2792 44.5953C46.4151 44.6746 46.5276 44.789 46.6055 44.9269C46.6837 45.0647 46.7249 45.2209 46.7247 45.3798C46.7483 46.2084 46.7322 47.0384 46.7322 47.9004C46.5098 47.9146 46.2863 47.911 46.0645 47.8896C45.9734 47.8731 45.9014 47.7374 45.8498 47.6842C45.601 47.7964 45.3413 47.8822 45.075 47.9401C44.9894 47.9517 44.9029 47.9575 44.8165 47.9576C44.6208 47.9575 44.4267 47.9289 44.2394 47.8714ZM45.1588 46.4263C45.0073 46.4536 44.8653 46.5201 44.7467 46.6192C44.6561 46.7481 44.6105 46.9039 44.6171 47.062C44.6258 47.1167 44.6488 47.168 44.6837 47.2108C44.7179 47.2544 44.7624 47.2885 44.8133 47.3098C45.0025 47.3511 45.1995 47.3372 45.3812 47.2697C45.8441 47.0296 45.8949 46.8566 45.8294 46.2667C45.6056 46.3175 45.3796 46.362 45.1588 46.4263ZM16.6777 47.8404C16.1656 47.7614 15.6646 47.6223 15.1842 47.426C14.926 47.267 14.6922 47.0708 14.4899 46.8435C14.3965 46.7637 14.2918 46.6963 14.1973 46.6192C13.7464 46.2995 13.2659 46.025 12.7623 45.7997C12.4327 45.5961 12.1147 45.3736 11.8101 45.1333C11.5441 44.9488 11.2636 44.7862 11.0122 44.5865C10.7502 44.3805 10.5244 44.1279 10.2644 43.9208C9.97804 43.6939 9.67526 43.4878 9.37098 43.2858C9.04665 43.0559 8.70964 42.8448 8.36168 42.6535C7.80933 42.3693 7.24463 42.1101 6.67333 41.8683C6.35449 41.7487 6.02991 41.6455 5.70072 41.5592C5.70072 41.7121 5.70679 41.8575 5.69747 42.0013C5.69415 42.0488 5.64835 42.1316 5.62441 42.131C5.54027 42.1337 5.45683 42.1127 5.38377 42.0704C5.2328 41.9616 5.09641 41.8303 4.97005 41.7212C4.6967 41.8394 4.45375 42.0094 4.17475 41.7828C4.14002 41.7676 4.10125 41.7646 4.06466 41.7744C3.8126 41.808 3.70617 41.702 3.76037 41.3888C3.54921 41.3855 3.34843 41.3788 3.14791 41.3804C2.95914 41.3771 2.77029 41.3854 2.58253 41.4053C2.39562 41.427 2.21181 41.4693 2.03403 41.5316C1.73009 41.6431 1.4354 41.7784 1.13611 41.9057C1.08456 41.9232 1.03602 41.9493 0.992903 41.9828C0.750815 42.2088 0.491677 42.0838 0.276192 41.9721C0.175515 41.9212 0.0946132 41.8373 0.0469223 41.7342C-0.000768529 41.631 -0.01246 41.5146 0.0134737 41.4037C0.0753168 41.1263 0.170755 40.8576 0.29795 40.604C0.433293 40.27 0.768367 40.1518 0.885088 39.8336C0.918341 39.7458 1.11778 39.7306 1.17963 39.64C1.39371 39.4111 1.64215 39.218 1.91583 39.0677C2.03487 38.9737 2.09567 38.7983 2.29253 38.836C2.30009 38.8376 2.30802 38.8376 2.31559 38.836C2.3228 38.8335 2.32918 38.8292 2.33442 38.8235C2.53394 38.4845 2.96346 38.5205 3.22617 38.2751C3.30398 38.2027 3.44249 38.2009 3.55156 38.1612C3.63703 38.1296 3.75523 38.1104 3.79447 38.0457C3.83933 37.9733 3.90207 37.914 3.97665 37.8739C4.05124 37.8338 4.13483 37.8142 4.21924 37.8171C4.25092 37.8162 4.28216 37.8082 4.31049 37.7938C4.339 37.7801 4.36409 37.7603 4.38421 37.7356C4.53352 37.4538 4.85714 37.478 5.07462 37.3191C5.23287 37.1878 5.40619 37.0765 5.59096 36.9875C5.89939 36.8663 6.21607 36.7671 6.53824 36.6908C6.78598 36.6292 6.93204 36.7764 6.97859 37.0949C6.98346 37.1707 6.98346 37.2467 6.97859 37.3225C7.05053 37.303 7.12149 37.2791 7.19065 37.2511C7.35631 37.1787 7.5175 37.096 7.67322 37.0036C7.91132 36.8491 8.13605 36.6744 8.3685 36.5107C8.46194 36.4434 8.56184 36.3862 8.65362 36.3178C8.70693 36.274 8.75692 36.2262 8.80301 36.1747C8.83652 36.1306 8.87447 36.0901 8.91634 36.0541C9.3389 35.7506 9.77905 35.4732 10.2345 35.2232C10.6007 35.0834 10.9794 34.9793 11.3652 34.9124C11.3671 34.9934 11.3748 35.0742 11.3883 35.1541C11.4165 35.3404 11.4799 35.5193 11.5753 35.6811C11.7432 35.9699 11.869 36.2818 11.9488 36.607C12.0539 36.8734 12.1222 37.1533 12.1514 37.4386C12.1687 37.9238 12.4722 38.1474 12.8211 38.3686C13.5829 38.8514 14.3287 39.3575 15.0978 39.8272C15.5082 40.0774 15.9516 40.2727 16.3397 40.472C16.4348 40.2626 16.5212 40.108 16.5761 39.9434C16.6089 39.8147 16.6297 39.6831 16.6378 39.5504C16.6617 39.3626 16.6683 39.1717 16.7086 38.9878C16.7377 38.853 16.7916 38.7249 16.8677 38.6104C16.9745 38.4551 17.0526 38.3205 16.9112 38.1427C16.8666 38.0779 16.845 37.9997 16.8495 37.9208C16.8563 37.5851 16.8113 37.2503 16.7164 36.9286C16.5967 36.4259 16.5638 35.903 16.4637 35.3952C16.3549 34.909 16.3482 34.4051 16.4439 33.9161C16.567 33.375 16.6373 32.7676 17.1983 32.407C17.3883 32.237 17.5389 32.0264 17.639 31.7905C17.6642 31.7457 17.5723 31.6302 17.5211 31.5211C17.5615 31.4061 17.61 31.2941 17.6659 31.186C17.7209 31.1066 17.7533 31.0135 17.7595 30.9167C17.7651 30.8203 17.7438 30.7243 17.6984 30.6393C17.6402 30.5171 17.6962 30.3362 17.7075 30.183C17.7338 29.8372 17.7694 29.4918 17.7897 29.146C17.792 29.0935 17.7404 29.0362 17.7085 28.9847C17.5336 28.7006 17.3373 28.4265 17.1863 28.1288C17.0263 27.7746 16.9892 27.3761 17.0807 26.9978C17.1032 26.8738 17.0877 26.7459 17.0366 26.631C16.9854 26.5161 16.9009 26.4198 16.7943 26.3547C16.6735 26.287 16.5741 26.1859 16.5079 26.0632C16.4417 25.9405 16.4113 25.8013 16.4202 25.6618C16.4235 25.6311 16.4316 25.5796 16.416 25.5695C16.0834 25.3409 16.1995 24.9254 16.0279 24.6203C15.8256 24.1983 15.6442 23.7662 15.4849 23.3257C15.4232 23.1786 15.3359 23.044 15.2268 22.9284C14.9728 22.6503 14.7785 22.3218 14.6562 21.9638C14.5457 21.7579 14.4172 21.5623 14.2724 21.3796C14.1137 21.1227 13.9571 20.8627 13.8151 20.5967C13.6016 20.1971 13.4104 19.785 13.1913 19.3893C13.014 19.0685 12.8187 18.757 12.6136 18.4536C12.3718 18.1336 12.215 17.7564 12.1579 17.3577C12.1062 17.098 11.9906 16.8558 11.8215 16.6536C11.6286 16.3506 11.4542 16.0337 11.2487 15.7388C10.8841 15.1715 10.4866 14.6266 10.0585 14.1068C9.4633 13.5197 8.92041 12.8806 8.43604 12.197C7.94755 11.4068 7.48392 10.5997 7.03932 9.78286C6.76364 9.2778 6.55167 8.73507 6.29728 8.21722C6.1054 7.82665 5.89035 7.44781 5.68351 7.06531C5.66383 7.02443 5.63226 6.9905 5.59323 6.96798C5.13599 6.76024 4.73031 6.43534 4.22086 6.34982C4.13953 6.3425 4.06343 6.30677 4.00523 6.24879C3.94735 6.19076 3.91114 6.11411 3.90326 6.03202C3.8579 5.81454 3.79471 5.6013 3.71394 5.39462C3.56296 4.99057 3.78522 4.70064 4.00004 4.35081C4.31029 4.70165 4.22098 5.14447 4.32673 5.54817C4.35998 5.50003 4.3794 5.48516 4.37674 5.47674C4.34349 5.35115 4.30196 5.20406 4.47189 5.16938C4.50827 5.15918 4.54639 5.1572 4.5836 5.16363C4.6208 5.16981 4.65612 5.18394 4.68752 5.20506C4.71858 5.22674 4.74499 5.25468 4.76481 5.28718C4.78434 5.3198 4.7964 5.35638 4.80053 5.39429C4.8391 5.59631 4.9565 5.62996 5.14671 5.6478C5.43003 5.67541 5.70517 5.77673 5.9865 5.83161C6.2046 5.88406 6.42748 5.91359 6.65157 5.91957C6.74722 5.90691 6.84443 5.91665 6.93573 5.94817C7.02702 5.9797 7.10991 6.03213 7.17798 6.10132C7.24606 6.17051 7.29755 6.25463 7.32834 6.34719C7.35913 6.43974 7.36848 6.53827 7.35562 6.63506C7.27116 7.16941 7.65105 7.48925 7.89047 7.87074C8.28892 8.40386 8.72918 8.90358 9.20699 9.36502C9.67479 9.85154 10.0904 10.3869 10.4465 10.9623C10.7631 11.5287 11.1121 12.0756 11.4922 12.6004C11.8188 13.0509 12.2086 13.4546 12.5707 13.8799L12.6373 13.8607C12.6285 13.5656 12.5986 13.2714 12.5483 12.9806C12.4839 12.7389 12.5093 12.4819 12.6191 12.2577C12.7807 11.9045 13.1219 11.6516 13.1572 11.2297C13.1605 11.1923 13.2444 11.1624 13.2903 11.1287C13.5783 10.9159 13.8664 10.7024 14.171 10.4755C14.0543 10.0125 13.9284 9.51481 13.805 9.01615C13.6182 8.27339 13.4562 7.52359 13.2371 6.79092C13.1115 6.36482 12.9337 5.95633 12.7077 5.57505C12.486 5.30242 12.1882 5.10382 11.8533 5.00506C11.4939 4.84479 11.1355 4.6784 10.7823 4.50231C10.4235 4.32352 10.0696 4.13497 9.71813 3.9407C9.5711 3.86878 9.43785 3.77123 9.32422 3.65249C9.27434 3.59357 9.32412 3.44711 9.32844 3.34004L9.40541 3.33839C9.34622 3.15321 9.28117 2.96802 9.23362 2.78081C9.23026 2.7516 9.23366 2.72197 9.24336 2.69425C9.25342 2.66637 9.26931 2.64109 9.29012 2.62019C9.31343 2.60443 9.34022 2.59453 9.36806 2.59125C9.39598 2.588 9.42429 2.59203 9.45022 2.60301C9.54012 2.67113 9.61738 2.75463 9.67884 2.84978C9.74202 2.95079 9.77886 3.07002 9.84836 3.16733C9.82774 2.91379 9.79516 2.66026 9.7925 2.40605C9.7925 2.31884 9.86463 2.23062 9.90486 2.14341C9.98898 2.18991 10.0684 2.24444 10.1423 2.30634C10.1629 2.32956 10.1782 2.35701 10.1874 2.38681C10.197 2.41689 10.2006 2.44864 10.1978 2.48011C10.1934 2.70811 10.2487 2.9332 10.3585 3.13231C10.4676 3.40639 10.7362 3.46223 10.9317 3.61846C10.5706 3.15718 10.7554 2.64948 10.7963 2.16092C10.7996 2.12186 10.9237 2.0505 10.9463 2.06532C11.0166 2.10578 11.0696 2.17112 11.0951 2.24879C11.1283 2.42657 11.125 2.61039 11.1496 2.78985C11.1622 2.95017 11.2228 3.10285 11.323 3.22758C11.4234 3.35213 11.5589 3.44278 11.7114 3.48751C12.2628 3.68684 12.8027 3.91953 13.3381 4.1633C13.4576 4.23785 13.5518 4.34776 13.6076 4.47814C13.8703 4.98757 14.1013 5.51518 14.3759 6.01788C14.8033 6.8024 15.265 7.56839 15.6983 8.35056C15.9158 8.74113 16.0974 9.1509 16.3072 9.54653C16.4306 9.71638 16.5392 9.89656 16.6323 10.0852C16.7111 10.3313 16.8984 10.2687 17.1411 10.3189L16.9229 10.423L16.9437 10.4688L17.5227 10.5677V10.6448L17.3899 10.6822C17.4474 10.7495 17.5054 10.8169 17.6055 10.9358L17.186 10.7229C17.173 10.997 17.1597 11.2142 17.1558 11.4317C17.1587 11.452 17.1656 11.4714 17.1762 11.4889C17.1873 11.5065 17.2021 11.5218 17.2191 11.5337C17.4459 11.6983 17.6778 11.8552 17.9046 12.0216C17.9266 12.038 17.9452 12.0587 17.9595 12.0822C17.9737 12.1062 17.9832 12.1327 17.9874 12.1603C17.9971 12.4519 18.0853 12.556 18.37 12.6506C18.6057 12.7295 18.8359 12.8236 19.0597 12.9324C19.1033 12.9457 19.1427 12.9705 19.1737 13.0041C19.2048 13.0378 19.2266 13.0792 19.2367 13.1241C19.2469 13.169 19.245 13.2158 19.2315 13.2598C19.218 13.3038 19.1933 13.3433 19.1598 13.3745C19.0998 13.4414 19.0657 13.528 19.0636 13.6183C19.0616 13.7086 19.0916 13.7967 19.1484 13.8664C19.1976 13.9495 19.1411 14.0923 19.1484 14.2071C19.1527 14.2778 19.1779 14.4041 19.2068 14.4092C19.3731 14.4317 19.4003 14.5213 19.403 14.6708C19.3984 14.7603 19.4179 14.8493 19.4595 14.9284C19.5008 15.0076 19.5627 15.074 19.6384 15.1203C19.6899 15.149 19.7336 15.19 19.7657 15.2397C19.7979 15.2895 19.8175 15.3465 19.8229 15.4057C19.8282 15.4649 19.8193 15.5246 19.7966 15.5794C19.7739 15.6342 19.7381 15.6826 19.6927 15.7203C19.4981 15.9338 19.2895 16.1358 19.1166 16.3644C19.0416 16.4905 18.9845 16.6264 18.9467 16.7685C19.3408 16.9971 19.6879 17.1914 20.0284 17.3991C20.1482 17.4722 20.2691 17.5637 20.1713 17.7482C20.1567 17.7765 20.2203 17.8513 20.2515 17.9011C20.3549 18.0386 20.4461 18.1851 20.524 18.3389C20.5767 18.5035 20.6703 18.6515 20.7958 18.769C20.9213 18.8864 21.0745 18.9693 21.2407 19.0096C21.5181 19.0668 21.5711 19.219 21.5794 19.4533C21.5732 19.6606 21.5915 19.8679 21.6337 20.0708C21.7142 20.2582 21.8063 20.4403 21.9094 20.616C22.0899 21.0315 22.2607 21.452 22.4283 21.8732C22.5613 22.2072 22.6946 22.5422 22.8044 22.8833C22.8971 23.1698 22.9585 23.4665 23.0327 23.7588C23.0376 23.7786 23.0237 23.8127 23.0327 23.8211C23.2089 23.9716 23.1988 24.2025 23.2853 24.3934C23.6843 25.2547 23.9346 26.1789 24.0251 27.1258C24.0959 27.9726 24.04 28.8302 24.04 29.6413L23.9208 29.4278L23.875 29.4487C23.9718 29.7022 24.0807 29.9514 24.1595 30.2106C24.2874 30.627 24.4031 31.0471 24.5067 31.4706C24.5105 31.5123 24.5052 31.5542 24.4911 31.5935C24.4769 31.6325 24.4544 31.6677 24.4248 31.6965C24.2116 31.9191 23.9227 32.0515 23.6169 32.0669C23.4396 32.0636 23.3664 32.1399 23.3568 32.3329C23.3454 32.5638 23.2529 32.7925 23.2486 33.0234C23.2615 33.2586 23.2914 33.4925 23.3386 33.7232C23.4004 34.1753 23.4844 34.6255 23.5126 35.0804C23.5414 35.5617 23.5414 36.0443 23.5126 36.5255C23.4953 36.7523 23.4343 36.9733 23.333 37.1763C23.1811 37.4639 23.1418 37.7989 23.223 38.1144C23.2398 38.2714 23.2283 38.4302 23.1895 38.5832C23.1183 39.169 23.0441 39.7541 22.97 40.34C22.9586 40.3861 22.9539 40.4337 22.956 40.4811C23.0085 41.0379 22.9358 41.5994 22.744 42.1239C22.5112 42.9916 22.2293 43.8434 21.9792 44.7057C21.8024 45.4284 21.5547 46.1314 21.2394 46.804C21.127 47.0391 20.969 47.2488 20.7747 47.4206C20.5804 47.5923 20.3538 47.7226 20.1087 47.8037C19.8618 47.8647 19.6054 47.8758 19.3543 47.8363C19.1032 47.7967 18.8623 47.7074 18.6454 47.5734C18.3251 47.4051 18.2082 47.3633 17.9316 47.5926C17.6905 47.7858 17.3893 47.8855 17.082 47.8737C16.9466 47.8724 16.8115 47.8622 16.6777 47.8404ZM9.75093 40.2875C10.1294 40.3774 10.5117 40.4437 10.8778 40.5609C11.2379 40.6839 11.6075 40.7768 11.9826 40.8384L12.0199 40.7353L10.6755 39.9168C10.4095 40.236 10.148 40.0912 9.90356 39.9134L9.75093 40.2875ZM7.85962 39.5205C7.84566 39.5438 7.89276 39.6336 7.93366 39.6552C8.06667 39.7315 8.20608 39.7957 8.35031 39.8471C8.59107 39.9269 8.83842 39.9875 9.1008 40.0622C9.15101 39.9333 9.24621 39.8885 9.40183 39.9875C9.44373 40.0141 9.53259 39.9653 9.63468 39.9434C9.22931 39.7969 8.88772 39.6683 8.54321 39.5518C8.36843 39.4929 8.18979 39.4471 8.00836 39.4148H8.00089C7.97161 39.4217 7.94403 39.4344 7.9197 39.4523C7.89537 39.4702 7.87486 39.4928 7.8593 39.5188L7.85962 39.5205ZM33.506 42.4723C33.1545 42.3846 32.8321 42.205 32.5707 41.9513C32.3094 41.6977 32.1185 41.379 32.017 41.0272C31.8531 40.211 31.7272 39.3875 31.5819 38.5693C31.4277 37.482 31.3841 36.3815 31.4513 35.2851C31.4923 34.6485 31.5652 34.0145 31.6702 33.3855C31.745 32.8245 31.8336 32.2653 31.9141 31.7053C31.9591 31.4784 31.9873 31.2482 31.9985 31.017C31.9985 30.7605 31.9452 30.5043 31.919 30.2477C31.9088 30.1503 31.9067 30.0522 31.9125 29.9544C31.9302 29.881 31.9266 29.804 31.9018 29.7327C31.8769 29.6614 31.8321 29.599 31.7728 29.5531C31.7343 29.5265 31.7097 29.479 31.6731 29.4521C31.5503 29.3716 31.4604 29.2489 31.4198 29.1066C31.3793 28.9643 31.3908 28.812 31.4523 28.6776C31.4723 28.6103 31.4191 28.5231 31.3964 28.4456C31.3506 28.3488 31.3198 28.2453 31.3055 28.1389C31.3366 27.9961 31.3118 27.8466 31.2363 27.7218C31.1609 27.5971 31.0407 27.5068 30.9009 27.4699C30.845 27.4457 30.7908 27.4134 30.722 27.3777C30.7845 27.2997 30.8192 27.2027 30.8207 27.1023C30.8221 27.0019 30.7903 26.9039 30.7301 26.8241C30.5113 26.2949 30.369 25.7365 30.3079 25.1662C30.194 24.6135 30.0944 24.0573 30.0088 23.4974C29.9347 23.0156 29.8724 22.5301 29.8338 22.0439C29.7576 21.0867 29.7623 20.1169 29.4038 19.2045C29.3452 19.0509 29.2692 18.9048 29.1771 18.7691C28.9738 18.4577 28.8727 18.0892 28.8884 17.7163C28.8767 17.1505 29.0835 16.6025 29.4652 16.189C29.5929 16.0154 29.7042 15.8301 29.7977 15.6355C29.8415 15.5515 29.8988 15.4754 29.9669 15.4101C30.2667 15.1473 30.5793 14.9001 30.9038 14.6694C31.2563 14.4767 31.5535 14.195 31.7667 13.8516C31.9307 13.5157 32.041 13.1556 32.093 12.7846C32.1353 12.4175 32.1365 12.0468 32.0966 11.6795C32.0744 11.5229 32.0048 11.3771 31.8972 11.2623C31.6721 11.0139 31.422 10.7886 31.175 10.561C31.1359 10.5174 31.1071 10.4652 31.0915 10.4085C31.0759 10.3518 31.0738 10.2922 31.085 10.2344C31.0963 10.1766 31.1208 10.1223 31.1565 10.0758C31.1922 10.0294 31.2381 9.99193 31.2906 9.96666C31.3613 9.94082 31.4256 9.89947 31.4786 9.8455C31.5315 9.79127 31.5715 9.72565 31.5958 9.65355C31.6221 9.58116 31.7288 9.53808 31.8043 9.47748C31.7914 9.43673 31.7469 9.37208 31.7602 9.32359C31.8037 9.16904 31.8874 9.02459 31.917 8.86802C31.9288 8.7655 31.9073 8.66189 31.8553 8.57308C31.6684 8.24244 31.6891 8.02122 32.0882 7.96971C32.1871 7.95025 32.2847 7.92449 32.3804 7.8926C32.6652 7.82831 32.9173 7.6618 33.0903 7.42388C33.4433 6.96332 33.9513 6.65045 34.5176 6.5448C34.7304 6.5017 34.9279 6.37205 35.1414 6.33872C35.2437 6.32636 35.3411 6.28777 35.4246 6.2266C35.5083 6.16603 35.5758 6.08494 35.6201 5.99092C35.9047 5.48586 36.2036 4.98788 36.5108 4.49696C36.8258 3.99191 37.1711 3.50739 37.475 2.99594C37.6764 2.66061 37.8496 2.30862 37.9923 1.94374C38.1254 1.6329 38.3198 1.35304 38.5639 1.12138C38.808 0.889725 39.0965 0.711207 39.4115 0.596926C39.615 0.505679 39.7949 0.36595 39.9934 0.263593C40.1854 0.162062 40.3846 0.075185 40.5893 0.00366687C40.6468 -0.0155252 40.7471 0.044383 40.803 0.0958986C40.8259 0.117448 40.8055 0.237967 40.7695 0.268607C40.5733 0.430561 40.3675 0.581131 40.1597 0.728944C40.0782 0.779585 39.9935 0.824549 39.906 0.863592L39.9291 0.928204C40.1064 0.916055 40.2813 0.881256 40.45 0.824546C40.7988 0.656194 41.1289 0.449759 41.4671 0.257838C41.5181 0.221926 41.573 0.192422 41.6311 0.169963C41.7458 0.139323 41.8641 -0.0135313 41.9818 0.145056C42.0457 0.231589 41.9011 0.497559 41.7821 0.556482C41.7012 0.588712 41.6352 0.650351 41.5967 0.729272C41.5704 0.805704 41.5661 0.906376 41.5145 0.953851C41.321 1.12995 41.1097 1.28619 40.9098 1.45488C40.3554 1.8848 39.7359 2.22096 39.0754 2.45044C38.9422 2.50241 38.8215 2.58286 38.7217 2.6862C38.6221 2.78928 38.5462 2.91327 38.4993 3.04945C38.0506 4.16955 37.6771 5.31897 37.3808 6.48989C37.3529 6.6111 37.3389 6.73741 37.3013 6.85627C37.2715 6.91552 37.2328 6.96956 37.1863 7.01648L38.0177 7.9448C38.4021 7.4601 38.865 7.04527 39.3871 6.71817C39.7639 6.43803 40.1057 6.10741 40.4552 5.79158C40.9756 5.32019 41.5099 4.8643 41.9974 4.36059C42.2655 4.04485 42.5101 3.70937 42.7291 3.35689C42.7882 3.27372 42.8535 3.19389 42.9044 3.10601C43.0198 2.85205 43.1591 2.60997 43.3204 2.38311C43.5945 2.08292 43.8951 1.80867 44.2183 1.56363C44.4853 1.37344 44.7629 1.19896 45.0497 1.04107C45.1244 0.983922 45.2079 0.939517 45.2968 0.909708C45.3357 0.899657 45.3763 0.898578 45.4157 0.906502C45.455 0.914426 45.492 0.931148 45.5241 0.955495C45.5404 0.992819 45.5469 1.0338 45.5426 1.07436C45.5388 1.1151 45.525 1.15428 45.5024 1.18821C45.3556 1.33673 45.1981 1.47393 45.0312 1.59865C44.9065 1.69596 44.7667 1.77402 44.634 1.86055L44.6496 1.93461C44.7474 1.9703 44.8491 2.0444 44.9419 2.03564C45.2654 2.00399 45.5854 1.94507 45.9063 1.89524C46.2149 1.84709 46.5219 1.78714 46.8322 1.75212C47.0072 1.73451 47.1837 1.73646 47.3583 1.75788C47.5098 1.77677 47.6587 1.81304 47.8022 1.86597C47.8661 1.88853 47.9129 1.96156 47.9685 2.01139C47.916 2.05875 47.8598 2.1016 47.8003 2.13938C47.7369 2.16686 47.671 2.18856 47.6038 2.20432C47.7827 2.44439 47.7663 2.48685 47.4843 2.59561C47.0221 2.77271 46.5632 2.95553 46.1103 3.15722C46.252 3.18853 46.3991 3.184 46.5386 3.14407C46.6438 3.11025 46.7546 3.09878 46.8643 3.11036C46.9741 3.12195 47.0804 3.15633 47.1764 3.21139C46.8522 3.3252 46.5838 3.43667 46.3074 3.51209C45.8289 3.64239 45.3471 3.76228 44.862 3.86532C44.6196 3.91784 44.3663 3.91342 44.1206 3.95483C43.9991 3.96543 43.8839 4.01431 43.7913 4.09458C43.2652 4.70368 42.7458 5.3185 42.241 5.94645C41.6214 6.71682 41.0267 7.50707 40.4058 8.27509C40.0464 8.71887 39.6383 9.12262 39.2848 9.57078C39.0936 9.83887 38.9258 10.1233 38.7834 10.4209C38.5686 10.8182 38.3665 11.223 38.1563 11.6294L38.2875 11.5671C38.6374 11.8304 39.0001 12.0765 39.33 12.3607C39.6254 12.5915 39.887 12.8636 40.1071 13.1687C40.3079 13.5214 40.3835 13.9333 40.3207 14.3354C40.3324 14.5141 40.3735 14.6896 40.4422 14.8546C40.5013 14.9929 40.5174 15.146 40.4886 15.2938C40.4598 15.4416 40.3873 15.577 40.2808 15.6822C40.3267 15.5221 40.3642 15.3595 40.3932 15.1953C40.4021 15.1337 40.3422 15.0634 40.3126 14.9967C40.27 15.0432 40.2314 15.0932 40.197 15.1462C40.0617 15.3987 39.9473 15.6647 39.793 15.9041C39.6622 16.1103 39.5056 16.2986 39.3274 16.4644C39.1215 16.6689 38.9605 16.915 38.8549 17.1866C38.7947 17.3196 38.722 17.4465 38.6555 17.5772L38.5977 17.5523L38.8006 17.1018L38.7376 17.0577C38.6238 17.1773 38.5194 17.3061 38.4259 17.4425C38.3066 17.6512 38.2007 17.8675 38.1089 18.09C38.0713 18.1994 38.0441 18.3121 38.0277 18.4267C38.0227 18.4476 38.0419 18.485 38.0339 18.4914C37.8277 18.6392 37.7975 18.9517 37.5202 19.0375C37.4397 19.0624 37.3786 19.1496 37.2818 19.2311L37.3117 19.0358L37.2435 19.0069C37.1466 19.2188 37.0497 19.431 36.9528 19.6436L36.8863 19.621C36.9576 19.3575 37.029 19.0943 37.1006 18.8314C36.8096 19.045 36.5956 19.3492 36.4914 19.6974C36.371 20.1577 36.1922 20.6015 36.0442 21.0547C36.0265 21.1266 36.0155 21.1999 36.0111 21.2738C35.9991 21.4189 35.9462 21.5575 35.8584 21.6729C35.7706 21.7884 35.6517 21.8761 35.5162 21.9254C35.5579 21.7091 35.5567 21.4867 35.5129 21.2709C35.4691 21.0551 35.3835 20.8502 35.2609 20.6682C35.2688 21.0741 35.2344 21.4796 35.1586 21.8783C35.0653 22.2833 35.0532 22.7031 35.1229 23.113C35.1865 23.187 35.2269 23.2784 35.2395 23.3756C35.2519 23.4728 35.2361 23.5716 35.1937 23.6598C35.3141 23.8029 35.4356 23.9291 35.5353 24.0702C35.602 24.1457 35.6395 24.2431 35.6405 24.3443C35.6239 24.4666 35.6403 24.5913 35.6879 24.705C35.7356 24.8187 35.8129 24.9172 35.9114 24.9901C36.0188 25.1056 36.0728 25.2726 36.1835 25.383C36.3238 25.5227 36.5118 25.6133 36.6531 25.7534C36.7622 25.8615 36.8063 26.0409 36.9213 26.1355C37.4424 26.5634 37.56 27.213 37.8261 27.78C37.9768 28.1149 38.0966 28.4632 38.1839 28.8204C38.2301 29.0707 38.2565 29.3244 38.2632 29.579C38.3263 29.4867 38.4156 29.4157 38.5191 29.3753C38.6225 29.3348 38.7354 29.3268 38.8435 29.3521C39.1062 29.3811 39.1762 29.2106 39.2111 29.0214C39.2613 28.7564 39.2603 28.4804 39.3222 28.2194C39.3518 28.0932 39.3737 27.8894 39.6398 27.9901C39.9395 28.0598 40.2297 28.166 40.5042 28.3066C40.744 28.4662 41.0654 28.4961 41.3135 28.6466C41.5177 28.7705 41.8125 28.8443 41.8324 29.177C41.8324 29.207 41.8961 29.2403 41.9373 29.2591C42.227 29.3938 42.5263 29.5077 42.8063 29.6605C43.069 29.8036 43.3123 29.9837 43.5617 30.1518C43.6655 30.2181 43.7639 30.2924 43.8562 30.3743C44.0197 30.5204 44.1752 30.6756 44.3219 30.839C44.3884 30.9271 44.4369 31.0277 44.4648 31.1349C44.5482 31.4571 44.5609 31.7938 44.5018 32.1214C44.4878 32.2209 44.4508 32.3157 44.394 32.3982C44.3371 32.4805 44.2617 32.548 44.1742 32.5952C44.0867 32.6433 43.9889 32.6693 43.8894 32.671C43.7903 32.6729 43.6924 32.651 43.6033 32.607C43.4459 32.5092 43.2594 32.4708 43.0769 32.4988C42.8943 32.5268 42.7274 32.6193 42.6056 32.7598C42.1472 33.1392 41.5939 33.3829 41.0073 33.4639C40.9475 33.4738 40.8897 33.4931 40.8358 33.5211C40.7685 33.5686 40.6891 33.5961 40.6072 33.6003C40.5253 33.6043 40.4443 33.5847 40.373 33.5437C40.3487 33.5244 40.3207 33.5103 40.2909 33.5023C40.2608 33.4948 40.2295 33.4934 40.199 33.4982C40.1684 33.5032 40.1394 33.5146 40.1136 33.5319C40.0872 33.5484 40.0644 33.5705 40.047 33.5966C39.5493 34.1504 39.1068 34.7525 38.7256 35.3942C38.1699 36.4295 37.593 37.4535 37.033 38.4871C36.8142 38.8912 36.6217 39.3114 36.4082 39.7205C36.2679 39.9899 36.1137 40.2515 35.9617 40.5131C35.7289 40.9121 35.5227 41.3282 35.256 41.7006C35.0893 41.948 34.8646 42.1497 34.602 42.2875C34.3394 42.4253 34.0472 42.4949 33.7515 42.4902C33.6693 42.4881 33.5872 42.4817 33.5057 42.4707L33.506 42.4723ZM37.4029 32.2194C37.6899 31.9568 37.9331 31.7373 38.1722 31.5124C38.1981 31.4834 38.2129 31.446 38.2141 31.4069C38.2377 30.9914 38.2594 30.5749 38.2807 30.1611L38.2213 30.1578C37.9566 30.8207 37.6922 31.4864 37.4026 32.2178L37.4029 32.2194ZM35.911 21.2025C35.9579 20.9698 35.9931 20.8045 36.0244 20.6375C36.054 20.4789 36.0802 20.3193 36.1114 20.1439C35.7077 20.4287 35.8592 20.7881 35.9101 21.2008L35.911 21.2025ZM37.2945 18.8923L37.6481 18.3681C37.4027 18.3722 37.3041 18.5159 37.2941 18.8907L37.2945 18.8923ZM35.6805 17.6466C36.0214 17.4155 36.2753 17.0746 36.4011 16.6792C36.3995 16.6202 36.3945 16.5615 36.3861 16.5031L36.0465 16.8466L35.9874 16.7876C36.0459 16.706 36.1096 16.6283 36.178 16.555C36.2431 16.5013 36.2919 16.4301 36.3189 16.3496C36.3461 16.2693 36.3502 16.1829 36.3306 16.1004C36.2953 15.8259 36.2763 15.5496 36.2738 15.2728L36.2608 15.0469L36.1569 15.031C35.9836 15.899 35.6648 16.7358 35.6805 17.6466ZM37.2964 15.6038L37.3643 15.6247L37.64 14.757L37.5646 14.7388C37.4516 15.0196 37.2445 15.2732 37.2964 15.6038ZM39.6242 14.7372C39.6069 14.8486 39.5559 14.9556 39.5436 15.0678C39.5499 15.155 39.5681 15.2409 39.5979 15.323C39.7294 15.1852 39.8081 15.0046 39.8203 14.8134C39.8325 14.6223 39.777 14.4329 39.6641 14.2792C39.6518 14.4388 39.6465 14.5893 39.6242 14.7372Z" fill="#664DE5"/>
<path d="M65.1158 35.9849L60.832 20.4358L60.5495 20.4948V35.8913H56V12.2051C58.2869 12.2051 60.6084 12.1844 62.9299 12.2396C63.1257 12.2396 63.4156 12.7074 63.4849 13.0024C64.8518 18.4142 66.1888 23.8295 67.7653 29.281C69.1733 23.6052 70.5798 17.9235 71.9866 12.2363H78.9537V35.9192H74.5447V20.1237L74.3857 20.0719C74.0565 21.2001 73.7144 22.3146 73.4078 23.448C72.3215 27.4038 71.2617 31.363 70.1407 35.3101C70.0507 35.4831 69.9173 35.6309 69.755 35.7397C69.5939 35.8537 69.409 35.9281 69.2136 35.9571C68.609 35.9916 67.9997 36 67.3847 36C66.6553 35.9965 65.9076 35.9849 65.1158 35.9849ZM123.242 35.9293C122.247 35.9155 121.271 35.6622 120.396 35.1905C119.521 34.7188 118.774 34.0431 118.219 33.2211C117.509 32.0601 117.07 30.7543 116.936 29.4014C116.796 24.1224 116.889 18.8383 116.898 13.5541C116.921 13.4505 116.956 13.3497 116.999 13.2526H121.457V17.7828H131.055V20.9639H121.527C121.527 23.9277 121.329 26.7551 121.599 29.5429C121.773 31.3267 122.335 31.9962 124.741 31.8548C125.384 31.7639 125.97 31.4391 126.386 30.9429C126.802 30.4468 127.018 29.8144 126.993 29.1685C127.031 27.4986 126.993 25.8268 126.993 24.0327H131.184C130.787 26.8636 131.735 29.6826 130.456 32.455C129.801 33.5588 128.861 34.4684 127.734 35.089C126.607 35.7096 125.333 36.0189 124.046 35.9849C123.777 35.9866 123.508 35.9678 123.242 35.9293ZM105.99 35.7465C104.644 35.521 103.331 35.1308 102.082 34.584C101.234 34.0956 100.51 33.42 99.9652 32.6095C99.4204 31.7991 99.0703 30.8751 98.9399 29.9085C98.2921 27.4576 98.3962 24.8698 99.2394 22.4785C99.6423 21.3325 100.322 20.3031 101.221 19.4818C102.119 18.6605 103.207 18.0728 104.388 17.7706C105.719 17.3339 107.136 17.2233 108.519 17.4479C109.902 17.6726 111.21 18.2259 112.333 19.0611C113.866 20.3429 114.848 22.1597 115.079 24.1396C115.306 25.3145 115.314 26.5292 115.437 27.8489H103.354C103.269 28.7007 103.441 29.5583 103.85 30.3112C104.259 31.064 104.885 31.6775 105.648 32.0721C106.438 32.3946 107.312 32.4549 108.139 32.2444C108.966 32.028 109.7 31.55 110.23 30.8819C110.413 30.6386 110.682 30.4737 110.983 30.4211C112.005 30.3659 113.036 30.3919 114.06 30.3954C114.377 30.3954 114.692 30.4296 115.023 30.4417C114.574 32.0359 113.611 33.4388 112.282 34.4336C110.953 35.4285 109.331 35.9599 107.668 35.9465C107.103 35.9431 106.54 35.8761 105.99 35.7465ZM106.844 21.0069C105.868 21.0756 104.957 21.525 104.31 22.2574C103.663 22.9897 103.333 23.9461 103.39 24.9196H110.666C110.695 24.4223 110.624 23.9241 110.455 23.4552C110.286 22.9862 110.023 22.5562 109.683 22.1904C109.344 21.8246 108.933 21.5308 108.477 21.3266C108.021 21.1224 107.529 21.0119 107.029 21.0018C106.959 21.0018 106.9 21.0018 106.844 21.0052V21.0069ZM85.8075 35.3948C84.4311 34.908 83.2259 34.0332 82.3392 32.8774C81.4525 31.7216 80.9212 30.3342 80.8114 28.8838C80.498 27.0059 80.5779 25.0839 81.0432 23.2375C81.3397 21.886 82.0164 20.6467 82.9956 19.6654C83.9749 18.6842 85.2152 18.0018 86.5706 17.6981C87.8153 17.3128 89.1318 17.211 90.4213 17.4003C91.7108 17.5897 92.9399 18.0653 94.0199 18.7919C94.8331 19.393 95.5192 20.1489 96.0367 21.0157C96.5541 21.8825 96.8931 22.843 97.0349 23.8415C97.2416 25.1658 97.3694 26.5008 97.4189 27.8401H85.344C85.259 28.684 85.4285 29.5339 85.8295 30.2821C86.2305 31.0303 86.8446 31.6431 87.5959 32.0426C88.3998 32.3756 89.2922 32.4321 90.132 32.2031C90.9717 31.974 91.7121 31.4727 92.2333 30.7782C92.4504 30.5571 92.7407 30.4227 93.0505 30.4004C94.362 30.3625 95.6672 30.3832 96.9926 30.3832C96.6508 31.7619 95.908 33.0094 94.8574 33.9699C93.8069 34.9304 92.4949 35.561 91.0862 35.7827C90.4979 35.8709 89.903 35.915 89.308 35.9141C88.1215 35.9136 86.9424 35.738 85.8075 35.3931V35.3948ZM86.9868 21.6471C86.4604 21.9963 86.0448 22.4884 85.7906 23.0652C85.5359 23.6446 85.4545 24.2846 85.5555 24.9091H92.7307C92.7431 24.2108 92.5649 23.5223 92.2181 22.9152C91.8712 22.3082 91.3672 21.805 90.758 21.4588C90.1991 21.1541 89.5746 20.9889 88.9375 20.9774C88.2307 20.9751 87.5436 21.21 86.9868 21.6437V21.6471ZM134.947 35.9069V12.1916H138.278C140.617 12.1916 142.969 12.2813 145.309 12.1744C146.543 12.1289 147.77 12.3831 148.883 12.9152C149.995 13.4474 150.96 14.2416 151.696 15.2287C152.432 16.2159 152.915 17.3661 153.104 18.5809C153.293 19.7957 153.182 21.0384 152.781 22.2009C152.35 23.6447 151.457 24.9085 150.238 25.7995C149.021 26.6922 147.545 27.1657 146.033 27.1485C144.02 27.0899 142.005 27.1363 139.838 27.1363V35.9069H134.947ZM139.846 16.3301V23.2497C141.904 23.2497 143.874 23.3478 145.829 23.2202C146.628 23.1577 147.374 22.7954 147.915 22.2064C148.456 21.6175 148.752 20.8461 148.744 20.0479C148.822 19.6373 148.818 19.2153 148.73 18.8066C148.642 18.398 148.473 18.0111 148.233 17.6686C147.992 17.3262 147.685 17.0348 147.329 16.8124C146.974 16.5899 146.578 16.4406 146.164 16.3731C145.327 16.3093 144.483 16.2867 143.636 16.2867C142.387 16.2833 141.125 16.3267 139.846 16.3267V16.3301ZM171.535 35.8952V12H176V35.8952H171.535ZM156.408 35.3413C152.91 34.1958 153.133 29.291 154.84 27.3364C156.468 25.4749 158.757 25.4284 160.903 24.9782C161.77 24.7953 162.651 24.6762 163.502 24.4605C163.886 24.3812 164.226 24.1645 164.46 23.8515C164.691 23.537 164.8 23.1501 164.768 22.7615C164.794 22.3918 164.679 22.0259 164.444 21.7385C164.209 21.448 163.868 21.2619 163.495 21.2208C160.758 20.6326 159.372 20.855 158.386 23.4013H154.335C154.665 19.4662 156.555 17.6324 160.668 17.3633C162.862 17.1184 165.08 17.5339 167.035 18.5557C167.743 18.9619 168.329 19.5481 168.735 20.2547C169.143 20.9606 169.357 21.7607 169.356 22.5749C169.479 26.8205 169.395 31.0732 169.395 35.4896C168.236 35.5625 167.072 35.544 165.916 35.4344C165.442 35.3498 165.067 34.6544 164.798 34.3818C163.502 34.9569 162.149 35.3963 160.761 35.693C160.315 35.7525 159.865 35.7825 159.414 35.7827C158.395 35.7821 157.382 35.6325 156.406 35.3379L156.408 35.3413ZM161.198 27.937C160.409 28.0768 159.669 28.4173 159.051 28.9255C158.579 29.5859 158.341 30.384 158.376 31.194C158.421 31.4743 158.541 31.7373 158.723 31.9563C158.901 32.1798 159.133 32.3547 159.398 32.4638C160.384 32.6752 161.41 32.6038 162.357 32.2582C164.768 31.0282 165.033 30.1415 164.691 27.119C163.526 27.3795 162.346 27.6041 161.196 27.9336L161.198 27.937Z" fill="#13131A"/>
</svg>
