<svg width="16" height="16" viewBox="0 0 16 16" fill="none" xmlns="http://www.w3.org/2000/svg">
<path d="M15 2.00672C14.3906 2.45846 13.7159 2.80396 13.0018 3.02993C12.6186 2.56682 12.1092 2.23858 11.5427 2.0896C10.9761 1.94062 10.3797 1.9781 9.83405 2.19696C9.28842 2.41581 8.81992 2.80549 8.4919 3.31329C8.16388 3.82109 7.99217 4.42251 8 5.0362V5.70496C6.88168 5.73544 5.77354 5.47478 4.77428 4.94622C3.77502 4.41765 2.91566 3.63758 2.27273 2.67548C2.27273 2.67548 -0.272727 8.69432 5.45455 11.3694C4.14397 12.3043 2.58274 12.773 1 12.7069C6.72727 16.0507 13.7273 12.7069 13.7273 5.01614C13.7267 4.82986 13.7096 4.64404 13.6764 4.46107C14.3258 3.78796 14.7842 2.93811 15 2.00672Z" fill="#8C8C8C"/>
</svg>
